<svg width="602.301" height="70.801" viewBox="0 0 602.301 70.801" xmlns="http://www.w3.org/2000/svg"><g id="svgGroup" stroke-linecap="round" fill-rule="evenodd" font-size="9pt" stroke="#ffffff" stroke-width="0.25mm" fill="#ffffff" style="stroke:#ffffff;stroke-width:0.25mm;fill:#ffffff"><path d="M 13.6 62.993 A 0.978 0.978 0 0 0 13.701 63 A 2.862 2.862 0 0 0 14.39 62.916 Q 14.977 62.771 15.535 62.377 A 5.256 5.256 0 0 0 16.351 61.65 A 22.853 22.853 0 0 0 17.127 60.767 A 26.903 26.903 0 0 0 18.751 58.6 Q 19.901 56.9 20.601 55.9 Q 20.689 55.813 21.235 55.151 A 150.218 150.218 0 0 0 21.401 54.95 A 6.226 6.226 0 0 0 21.655 54.621 Q 21.936 54.229 22.04 53.926 A 1.013 1.013 0 0 0 22.101 53.6 A 0.703 0.703 0 0 0 22.098 53.534 Q 22.084 53.383 22.001 53.3 Q 21.431 53.138 20.696 53.869 A 5.292 5.292 0 0 0 20.351 54.25 Q 19.401 55.4 18.301 56.7 A 10.623 10.623 0 0 1 18.032 57.007 Q 17.189 57.934 16.402 58.322 A 2.484 2.484 0 0 1 15.301 58.6 A 1.541 1.541 0 0 1 15.136 58.592 Q 14.407 58.513 14.246 57.711 A 2.614 2.614 0 0 1 14.201 57.2 Q 14.201 56.3 15.001 54.1 A 43.199 43.199 0 0 1 15.347 53.245 Q 16.226 51.132 17.751 48 Q 19.601 44.2 22.001 39.9 A 92.207 92.207 0 0 0 22.55 39.885 Q 24.488 39.826 26.654 39.681 A 155.146 155.146 0 0 0 31.251 39.3 A 93.764 93.764 0 0 0 33.792 39.019 A 81.291 81.291 0 0 0 41.001 37.8 Q 45.801 36.7 50.551 34.95 A 53.336 53.336 0 0 0 52.376 34.24 A 46.607 46.607 0 0 0 59.251 30.75 Q 63.201 28.3 65.751 25 Q 68.301 21.7 68.601 17.6 A 10.704 10.704 0 0 0 68.627 16.855 Q 68.627 14.54 67.613 12.329 A 14.455 14.455 0 0 0 65.751 9.35 A 16.475 16.475 0 0 0 61.4 5.555 A 21.91 21.91 0 0 0 56.901 3.5 Q 52.801 2.2 48.451 1.6 Q 44.101 1 39.701 1 A 75.623 75.623 0 0 0 37.91 1.021 A 67.845 67.845 0 0 0 25.901 2.35 A 66.683 66.683 0 0 0 24.605 2.629 Q 18.833 3.929 14.601 6 A 32.781 32.781 0 0 0 14.026 6.284 Q 12.771 6.919 11.421 7.732 A 55.873 55.873 0 0 0 8.751 9.45 Q 5.601 11.6 3.151 14.35 Q 0.701 17.1 0.101 20.2 Q 0.101 20.45 0.121 20.759 A 14.333 14.333 0 0 0 0.151 21.15 A 55.963 55.963 0 0 1 0.165 21.301 Q 0.201 21.715 0.201 21.8 Q 0.101 22.2 0.051 22.6 Q 0.001 23 0.001 23.4 Q 0.001 26 1.551 27.95 A 13.224 13.224 0 0 0 1.846 28.308 A 11.445 11.445 0 0 0 5.151 31 A 26.971 26.971 0 0 0 5.172 31.012 Q 7.208 32.102 8.601 32.4 Q 9.57 32.549 9.817 32.199 A 0.506 0.506 0 0 0 9.901 31.9 A 0.625 0.625 0 0 0 9.838 31.642 Q 9.737 31.421 9.474 31.153 A 4.385 4.385 0 0 0 9.201 30.9 A 11.023 11.023 0 0 0 9.108 30.845 Q 8.444 30.456 7.472 30.004 A 38.016 38.016 0 0 0 6.451 29.55 Q 4.701 28.8 3.501 27.4 A 3.839 3.839 0 0 1 2.699 25.842 Q 2.444 24.858 2.601 23.6 Q 3.401 18.9 7.401 15.5 A 29.369 29.369 0 0 1 11.915 12.366 A 38.926 38.926 0 0 1 17.301 9.85 A 59.117 59.117 0 0 1 19.923 8.921 A 66.262 66.262 0 0 1 29.951 6.5 A 89.593 89.593 0 0 1 31.633 6.242 A 80.681 80.681 0 0 1 43.101 5.4 Q 47.201 5.4 50.751 5.8 Q 54.301 6.2 57.101 7 A 22.415 22.415 0 0 1 59.171 7.677 Q 62.318 8.887 64.001 10.8 A 10.31 10.31 0 0 1 64.911 11.994 A 7.595 7.595 0 0 1 66.201 16.2 A 8.688 8.688 0 0 1 66.043 17.85 Q 65.457 20.887 62.701 23.8 A 29.519 29.519 0 0 1 59.493 26.647 A 37.325 37.325 0 0 1 54.801 29.7 Q 50.101 32.3 44.601 34.1 Q 39.101 35.9 33.501 36.95 A 83.204 83.204 0 0 1 29.385 37.618 A 68.431 68.431 0 0 1 22.901 38.2 Q 25.301 34 27.951 29.85 Q 30.601 25.7 33.301 22.3 A 49.355 49.355 0 0 1 34.057 21.371 Q 35.188 20.016 36.291 18.902 A 27.084 27.084 0 0 1 38.551 16.85 Q 41.101 14.8 43.301 14.8 A 0.649 0.649 0 0 1 43.376 14.805 Q 43.563 14.827 43.851 14.95 A 3.256 3.256 0 0 0 43.956 14.993 Q 44.132 15.062 44.265 15.086 A 0.749 0.749 0 0 0 44.401 15.1 A 0.442 0.442 0 0 0 44.512 15.087 Q 44.648 15.052 44.686 14.919 A 0.432 0.432 0 0 0 44.701 14.8 Q 44.701 14.525 44.654 14.345 A 0.746 0.746 0 0 0 44.601 14.2 A 3.018 3.018 0 0 0 44.052 13.019 A 3.251 3.251 0 0 0 43.101 12.2 A 11.579 11.579 0 0 0 42.8 12.031 A 10.307 10.307 0 0 0 40.651 11.15 A 17.524 17.524 0 0 0 40.174 11.024 Q 39.586 10.877 39.178 10.826 A 3.125 3.125 0 0 0 38.801 10.8 Q 37.584 10.8 36.244 11.354 A 10.987 10.987 0 0 0 34.701 12.15 A 18.885 18.885 0 0 0 34.088 12.543 A 20.58 20.58 0 0 0 30.601 15.5 A 29.266 29.266 0 0 0 29.165 17.125 A 23.088 23.088 0 0 0 27.451 19.5 A 21.039 21.039 0 0 0 27.085 20.107 Q 26.492 21.132 26.212 21.917 A 4.627 4.627 0 0 0 26.001 22.7 Q 26.201 23.1 26.201 23.7 A 1.983 1.983 0 0 1 26.195 23.845 Q 26.177 24.097 26.098 24.456 A 9.379 9.379 0 0 1 26.001 24.85 A 4.141 4.141 0 0 1 25.992 24.884 Q 25.853 25.388 25.537 26.047 A 14.108 14.108 0 0 1 25.201 26.7 A 25.262 25.262 0 0 1 24.818 27.53 Q 24.103 29.015 22.801 31.35 Q 21.101 34.4 19.101 38.2 Q 18.401 38.2 17.801 38.15 A 11.982 11.982 0 0 0 17.559 38.133 Q 17.284 38.115 16.973 38.107 A 22.159 22.159 0 0 0 16.401 38.1 Q 15.797 38.1 15.525 38.251 A 0.384 0.384 0 0 0 15.301 38.6 Q 15.301 39.303 16.033 39.579 A 2.491 2.491 0 0 0 16.501 39.7 Q 17.001 39.7 17.451 39.75 A 8.664 8.664 0 0 0 17.782 39.781 A 7.195 7.195 0 0 0 18.301 39.8 Q 16.101 44 14.051 48.35 A 108.208 108.208 0 0 0 13.491 49.557 Q 12.677 51.342 12.014 52.975 A 62.424 62.424 0 0 0 10.801 56.2 Q 9.74 59.294 9.773 61.138 A 5.34 5.34 0 0 0 9.801 61.6 A 0.553 0.553 0 0 0 9.926 61.828 Q 10.082 62.008 10.415 62.164 A 3.665 3.665 0 0 0 10.751 62.3 A 12.985 12.985 0 0 0 11.073 62.409 A 14.483 14.483 0 0 0 12.551 62.8 Q 13.323 62.963 13.6 62.993 Z M 318.362 70.498 A 10.905 10.905 0 0 0 321.001 70.8 Q 324.501 70.8 328.901 68.7 Q 331.582 67.421 334.412 65.194 A 47.882 47.882 0 0 0 338.101 61.95 Q 342.901 57.3 347.551 49.7 A 73.934 73.934 0 0 0 348.846 47.497 Q 350.769 44.095 352.577 40.106 A 130.768 130.768 0 0 0 356.201 31.2 A 2.399 2.399 0 0 1 356.717 30.427 Q 357.232 29.895 358.151 29.45 A 13.427 13.427 0 0 1 359.363 28.937 A 16.045 16.045 0 0 1 361.601 28.3 A 23.661 23.661 0 0 1 362.422 28.142 Q 363.086 28.027 363.681 27.966 A 12.137 12.137 0 0 1 364.901 27.9 A 6.252 6.252 0 0 1 365 27.901 Q 365.739 27.913 366.301 28.1 Q 366.903 28.358 366.987 27.73 A 1.73 1.73 0 0 0 367.001 27.5 A 1.225 1.225 0 0 0 367.001 27.467 Q 366.994 27.217 366.885 27.019 A 1.004 1.004 0 0 0 366.601 26.7 A 0.69 0.69 0 0 0 366.598 26.698 Q 366.29 26.47 365.52 26.417 A 7.522 7.522 0 0 0 365.001 26.4 A 13.945 13.945 0 0 0 364.188 26.425 Q 361.421 26.587 357.001 27.8 A 123.286 123.286 0 0 0 357.744 25.33 A 150.102 150.102 0 0 0 358.951 20.9 Q 359.901 17.2 361.001 13.5 A 110.803 110.803 0 0 1 361.31 12.477 Q 362.256 9.406 363.201 7 Q 365.279 7.178 366.969 7.533 A 19.232 19.232 0 0 1 369.101 8.1 Q 370.001 8.4 370.601 8.5 A 9.456 9.456 0 0 0 370.965 8.554 Q 371.329 8.6 371.601 8.6 Q 372.301 8.6 372.301 8.1 A 0.601 0.601 0 0 0 372.294 8.013 Q 372.222 7.517 371.351 6.6 A 14.303 14.303 0 0 0 371.016 6.259 Q 370.292 5.545 369.801 5.3 A 16.464 16.464 0 0 0 369.292 5.056 A 18.688 18.688 0 0 0 367.651 4.4 Q 366.501 4 365.201 3.6 A 8.23 8.23 0 0 1 365.775 3.04 Q 366.888 2.059 368.001 1.9 A 2.626 2.626 0 0 0 368.295 1.83 Q 368.52 1.762 368.682 1.659 A 0.847 0.847 0 0 0 369.101 0.9 Q 369.101 0.2 368.001 0.2 Q 366.601 0.2 365.301 1 A 9.129 9.129 0 0 0 364.392 1.64 A 10.699 10.699 0 0 0 362.901 3.1 A 32.944 32.944 0 0 0 362.107 2.959 A 36.82 36.82 0 0 0 358.501 2.55 Q 356.201 2.4 353.701 2.4 Q 349.101 2.4 344.601 3.15 A 36.751 36.751 0 0 0 341.353 3.839 A 29.549 29.549 0 0 0 336.501 5.55 A 18.474 18.474 0 0 0 334.012 6.921 A 14.009 14.009 0 0 0 330.801 9.8 A 8.351 8.351 0 0 0 329.334 12.514 Q 328.884 13.914 328.884 15.548 A 12.401 12.401 0 0 0 328.901 16.2 Q 328.901 19.6 331.301 22.35 A 12.68 12.68 0 0 0 331.769 22.858 A 10.115 10.115 0 0 0 337.001 25.8 Q 337.815 26.045 337.967 25.758 A 0.335 0.335 0 0 0 338.001 25.6 A 0.283 0.283 0 0 0 337.99 25.524 Q 337.932 25.314 337.557 25.059 A 3.852 3.852 0 0 0 337.301 24.9 A 11.237 11.237 0 0 0 337.14 24.802 Q 336.361 24.333 335.051 23.7 A 8.277 8.277 0 0 1 334.916 23.633 A 8.621 8.621 0 0 1 332.451 21.75 A 4.193 4.193 0 0 1 331.477 19.948 A 5.677 5.677 0 0 1 331.301 18.5 A 7.109 7.109 0 0 1 332.22 14.92 A 8.202 8.202 0 0 1 334.051 12.75 A 14.495 14.495 0 0 1 334.712 12.219 Q 337.317 10.244 341.251 9.05 A 47.648 47.648 0 0 1 343.01 8.553 A 53.338 53.338 0 0 1 350.701 7.15 A 70.976 70.976 0 0 1 352.518 6.974 Q 355.217 6.747 357.765 6.747 A 54.855 54.855 0 0 1 360.201 6.8 A 52.376 52.376 0 0 0 358.596 10.025 A 65.798 65.798 0 0 0 356.701 14.65 A 149.912 149.912 0 0 0 355.564 17.849 A 123.305 123.305 0 0 0 353.951 22.9 A 176.666 176.666 0 0 1 353.939 22.942 Q 353.155 25.597 352.488 27.554 A 58.236 58.236 0 0 1 351.901 29.2 Q 342.201 32.3 333.851 37.2 A 56.081 56.081 0 0 0 330.272 39.488 A 61.596 61.596 0 0 0 318.701 50 Q 315.501 53.7 314.051 57 A 22.668 22.668 0 0 0 313.578 58.161 Q 313.117 59.39 312.874 60.514 A 11.29 11.29 0 0 0 312.601 62.9 A 10.063 10.063 0 0 0 312.689 64.251 A 7.135 7.135 0 0 0 314.901 68.65 A 7.694 7.694 0 0 0 318.362 70.498 Z M 250.501 61.3 Q 248.801 61.3 247.351 60.5 Q 246.133 59.828 245.444 58.169 A 8.343 8.343 0 0 1 245.201 57.5 A 3.597 3.597 0 0 1 245.194 57.479 Q 244.901 56.581 244.901 55 A 19.112 19.112 0 0 1 245.046 52.713 Q 245.196 51.471 245.501 50.1 A 48.149 48.149 0 0 1 245.965 48.188 Q 246.364 46.688 246.801 45.5 A 1.274 1.274 0 0 0 246.542 45.652 Q 246.006 46.039 244.951 47.25 Q 243.601 48.8 241.651 50.95 Q 239.701 53.1 237.351 55.25 A 27.481 27.481 0 0 1 234.087 57.826 A 23.533 23.533 0 0 1 232.501 58.8 A 11.787 11.787 0 0 1 230.256 59.782 A 8.881 8.881 0 0 1 227.601 60.2 A 6.173 6.173 0 0 1 225.858 59.936 Q 225.153 59.729 224.413 59.359 A 10.8 10.8 0 0 1 224.201 59.25 A 8.845 8.845 0 0 1 222.224 57.848 A 7.818 7.818 0 0 1 221.301 56.8 A 8.194 8.194 0 0 1 220.309 55.111 A 6.081 6.081 0 0 1 219.801 52.7 A 8.858 8.858 0 0 1 220.354 49.687 Q 220.813 48.414 221.651 47.1 A 26.725 26.725 0 0 1 224.236 43.709 A 34.071 34.071 0 0 1 226.451 41.45 Q 229.401 38.7 232.751 36.45 A 68.72 68.72 0 0 1 236.425 34.14 A 53.606 53.606 0 0 1 239.151 32.65 Q 242.201 31.1 244.101 30.6 A 13.902 13.902 0 0 1 246.509 30.115 A 18.306 18.306 0 0 1 248.601 30 A 12.297 12.297 0 0 1 250.757 30.197 A 14.299 14.299 0 0 1 251.501 30.35 A 7.272 7.272 0 0 1 252.797 30.777 A 5.45 5.45 0 0 1 254.001 31.5 Q 254.801 31.9 255.301 32.6 A 2.688 2.688 0 0 1 255.71 33.437 A 2.439 2.439 0 0 1 255.801 34.1 A 1.351 1.351 0 0 1 255.787 34.305 Q 255.71 34.806 255.21 34.642 A 1.325 1.325 0 0 1 255.101 34.6 Q 254.301 33.4 252.951 33.05 Q 251.601 32.7 250.201 32.7 Q 246.875 32.7 242.996 34.498 A 28.595 28.595 0 0 0 241.401 35.3 A 42.604 42.604 0 0 0 233.04 41.182 A 39.904 39.904 0 0 0 232.801 41.4 Q 231.601 42.4 229.551 44.85 Q 227.501 47.3 225.801 50.2 Q 224.554 52.327 224.222 54.185 A 7.463 7.463 0 0 0 224.101 55.5 A 4.095 4.095 0 0 0 224.361 56.973 A 3.804 3.804 0 0 0 224.801 57.8 A 1.314 1.314 0 0 0 225.744 58.469 A 1.956 1.956 0 0 0 226.101 58.5 A 3.63 3.63 0 0 0 227.042 58.361 Q 227.952 58.115 229.137 57.434 A 17.968 17.968 0 0 0 229.851 57 A 38.414 38.414 0 0 0 232.542 55.107 A 49.415 49.415 0 0 0 234.701 53.35 Q 237.201 51.2 239.251 49.2 Q 241.139 47.358 242.051 46.45 A 105.882 105.882 0 0 0 242.201 46.3 A 25.395 25.395 0 0 0 242.465 46.031 Q 242.889 45.595 243.652 44.783 A 316.244 316.244 0 0 0 244.151 44.25 Q 245.601 42.7 247.301 40.9 A 116.971 116.971 0 0 1 248.722 39.421 Q 249.592 38.531 250.351 37.8 A 19.73 19.73 0 0 1 250.824 37.358 Q 251.757 36.517 252.088 36.501 A 0.261 0.261 0 0 1 252.101 36.5 Q 252.597 36.5 253.732 36.746 A 25.735 25.735 0 0 1 253.751 36.75 Q 254.901 37 255.701 37.5 Q 256.446 37.966 256.064 38.691 A 1.702 1.702 0 0 1 256.001 38.8 Q 253.401 42.6 251.851 46.75 A 57.222 57.222 0 0 0 251.078 48.946 Q 250.376 51.087 250.103 52.629 A 13.325 13.325 0 0 0 250.001 53.3 A 3.473 3.473 0 0 0 249.922 53.723 A 2.713 2.713 0 0 0 249.901 54.05 L 249.901 54.8 A 8.462 8.462 0 0 0 250.008 56.21 Q 250.433 58.712 252.55 58.797 A 3.763 3.763 0 0 0 252.701 58.8 A 3.457 3.457 0 0 0 253.68 58.642 Q 254.598 58.369 255.777 57.626 A 18.104 18.104 0 0 0 256.701 57 A 42.593 42.593 0 0 0 259.545 54.754 A 53.976 53.976 0 0 0 261.801 52.7 A 114.022 114.022 0 0 0 264.875 49.634 A 94.536 94.536 0 0 0 266.551 47.85 Q 268.701 45.5 269.501 44.3 Q 269.702 44.1 269.902 44.033 A 0.629 0.629 0 0 1 270.101 44 Q 270.501 44 270.801 44.35 A 0.634 0.634 0 0 1 270.916 44.541 Q 271.01 44.792 270.852 45.107 A 1.399 1.399 0 0 1 270.801 45.2 A 23.692 23.692 0 0 1 269.927 46.52 Q 268.979 47.86 267.601 49.5 A 62.115 62.115 0 0 1 264.247 53.172 A 72.15 72.15 0 0 1 262.901 54.5 A 52.411 52.411 0 0 1 260.008 57.091 A 41.342 41.342 0 0 1 257.801 58.8 A 10.297 10.297 0 0 1 256.428 59.683 Q 255.564 60.152 254.501 60.55 A 11.527 11.527 0 0 1 251.251 61.274 A 10.69 10.69 0 0 1 250.501 61.3 Z M 546.101 61.3 Q 544.401 61.3 542.951 60.5 Q 541.733 59.828 541.044 58.169 A 8.343 8.343 0 0 1 540.801 57.5 A 3.597 3.597 0 0 1 540.794 57.479 Q 540.501 56.581 540.501 55 A 19.112 19.112 0 0 1 540.646 52.713 Q 540.796 51.471 541.101 50.1 A 48.149 48.149 0 0 1 541.565 48.188 Q 541.964 46.688 542.401 45.5 A 1.274 1.274 0 0 0 542.142 45.652 Q 541.606 46.039 540.551 47.25 Q 539.201 48.8 537.251 50.95 Q 535.301 53.1 532.951 55.25 A 27.481 27.481 0 0 1 529.687 57.826 A 23.533 23.533 0 0 1 528.101 58.8 A 11.787 11.787 0 0 1 525.856 59.782 A 8.881 8.881 0 0 1 523.201 60.2 A 6.173 6.173 0 0 1 521.458 59.936 Q 520.753 59.729 520.013 59.359 A 10.8 10.8 0 0 1 519.801 59.25 A 8.845 8.845 0 0 1 517.824 57.848 A 7.818 7.818 0 0 1 516.901 56.8 A 8.194 8.194 0 0 1 515.909 55.111 A 6.081 6.081 0 0 1 515.401 52.7 A 8.858 8.858 0 0 1 515.954 49.687 Q 516.413 48.414 517.251 47.1 A 26.725 26.725 0 0 1 519.836 43.709 A 34.071 34.071 0 0 1 522.051 41.45 Q 525.001 38.7 528.351 36.45 A 68.72 68.72 0 0 1 532.025 34.14 A 53.606 53.606 0 0 1 534.751 32.65 Q 537.801 31.1 539.701 30.6 A 13.902 13.902 0 0 1 542.109 30.115 A 18.306 18.306 0 0 1 544.201 30 A 12.297 12.297 0 0 1 546.357 30.197 A 14.299 14.299 0 0 1 547.101 30.35 A 7.272 7.272 0 0 1 548.397 30.777 A 5.45 5.45 0 0 1 549.601 31.5 Q 550.401 31.9 550.901 32.6 A 2.688 2.688 0 0 1 551.31 33.437 A 2.439 2.439 0 0 1 551.401 34.1 A 1.351 1.351 0 0 1 551.387 34.305 Q 551.31 34.806 550.81 34.642 A 1.325 1.325 0 0 1 550.701 34.6 Q 549.901 33.4 548.551 33.05 Q 547.201 32.7 545.801 32.7 Q 542.475 32.7 538.596 34.498 A 28.595 28.595 0 0 0 537.001 35.3 A 42.604 42.604 0 0 0 528.64 41.182 A 39.904 39.904 0 0 0 528.401 41.4 Q 527.201 42.4 525.151 44.85 Q 523.101 47.3 521.401 50.2 Q 520.154 52.327 519.822 54.185 A 7.463 7.463 0 0 0 519.701 55.5 A 4.095 4.095 0 0 0 519.961 56.973 A 3.804 3.804 0 0 0 520.401 57.8 A 1.314 1.314 0 0 0 521.344 58.469 A 1.956 1.956 0 0 0 521.701 58.5 A 3.63 3.63 0 0 0 522.642 58.361 Q 523.552 58.115 524.737 57.434 A 17.968 17.968 0 0 0 525.451 57 A 38.414 38.414 0 0 0 528.142 55.107 A 49.415 49.415 0 0 0 530.301 53.35 Q 532.801 51.2 534.851 49.2 Q 536.739 47.358 537.651 46.45 A 105.882 105.882 0 0 0 537.801 46.3 A 25.395 25.395 0 0 0 538.065 46.031 Q 538.489 45.595 539.252 44.783 A 316.244 316.244 0 0 0 539.751 44.25 Q 541.201 42.7 542.901 40.9 A 116.971 116.971 0 0 1 544.322 39.421 Q 545.192 38.531 545.951 37.8 A 19.73 19.73 0 0 1 546.424 37.358 Q 547.357 36.517 547.688 36.501 A 0.261 0.261 0 0 1 547.701 36.5 Q 548.197 36.5 549.332 36.746 A 25.735 25.735 0 0 1 549.351 36.75 Q 550.501 37 551.301 37.5 Q 552.046 37.966 551.664 38.691 A 1.702 1.702 0 0 1 551.601 38.8 Q 549.001 42.6 547.451 46.75 A 57.222 57.222 0 0 0 546.678 48.946 Q 545.976 51.087 545.703 52.629 A 13.325 13.325 0 0 0 545.601 53.3 A 3.473 3.473 0 0 0 545.522 53.723 A 2.713 2.713 0 0 0 545.501 54.05 L 545.501 54.8 A 8.462 8.462 0 0 0 545.608 56.21 Q 546.033 58.712 548.15 58.797 A 3.763 3.763 0 0 0 548.301 58.8 A 3.457 3.457 0 0 0 549.28 58.642 Q 550.198 58.369 551.377 57.626 A 18.104 18.104 0 0 0 552.301 57 A 42.593 42.593 0 0 0 555.145 54.754 A 53.976 53.976 0 0 0 557.401 52.7 A 114.022 114.022 0 0 0 560.475 49.634 A 94.536 94.536 0 0 0 562.151 47.85 Q 564.301 45.5 565.101 44.3 Q 565.302 44.1 565.502 44.033 A 0.629 0.629 0 0 1 565.701 44 Q 566.101 44 566.401 44.35 A 0.634 0.634 0 0 1 566.516 44.541 Q 566.61 44.792 566.452 45.107 A 1.399 1.399 0 0 1 566.401 45.2 A 23.692 23.692 0 0 1 565.527 46.52 Q 564.579 47.86 563.201 49.5 A 62.115 62.115 0 0 1 559.847 53.172 A 72.15 72.15 0 0 1 558.501 54.5 A 52.411 52.411 0 0 1 555.608 57.091 A 41.342 41.342 0 0 1 553.401 58.8 A 10.297 10.297 0 0 1 552.028 59.683 Q 551.164 60.152 550.101 60.55 A 11.527 11.527 0 0 1 546.851 61.274 A 10.69 10.69 0 0 1 546.101 61.3 Z M 177.822 61.586 A 1.024 1.024 0 0 0 178.001 61.6 A 3.134 3.134 0 0 0 178.436 61.567 Q 179.285 61.447 180.651 60.9 Q 182.401 60.2 182.901 59.9 A 2.091 2.091 0 0 0 183.2 59.684 Q 183.761 59.211 184.732 57.996 A 42.668 42.668 0 0 0 185.351 57.2 Q 187.101 54.9 189.451 51.7 Q 191.801 48.5 194.301 45.45 Q 196.801 42.4 199.001 40.5 Q 200.726 38.919 201.934 38.009 A 14.471 14.471 0 0 1 202.801 37.4 Q 204.201 36.5 204.901 36.5 A 1.002 1.002 0 0 1 205.079 36.515 Q 205.474 36.587 205.57 36.998 A 1.33 1.33 0 0 1 205.601 37.3 A 2.48 2.48 0 0 1 205.577 37.632 Q 205.5 38.205 205.17 39 A 12.669 12.669 0 0 1 204.801 39.8 Q 204.001 41.2 202.701 43.9 A 48.411 48.411 0 0 0 202.301 44.753 A 53.975 53.975 0 0 0 200.351 49.65 A 20.812 20.812 0 0 0 199.652 52.161 A 15.813 15.813 0 0 0 199.301 55.4 A 8.072 8.072 0 0 0 199.358 56.375 A 6.249 6.249 0 0 0 200.501 59.35 A 4.032 4.032 0 0 0 201.425 60.263 Q 202.07 60.724 202.943 60.992 A 8.314 8.314 0 0 0 204.501 61.3 A 10.765 10.765 0 0 0 204.99 61.311 Q 206.945 61.311 208.901 60.6 A 24.323 24.323 0 0 0 209.506 60.371 Q 210.393 60.022 211.155 59.637 A 13.932 13.932 0 0 0 212.601 58.8 Q 215.101 57 217.701 54.45 Q 220.301 51.9 222.451 49.35 Q 223.929 47.597 224.816 46.246 A 14.286 14.286 0 0 0 225.501 45.1 Q 225.59 44.878 225.59 44.695 A 0.598 0.598 0 0 0 225.451 44.3 A 0.815 0.815 0 0 0 225.14 44.065 A 0.864 0.864 0 0 0 224.801 44 A 0.629 0.629 0 0 0 224.602 44.033 Q 224.402 44.1 224.201 44.3 A 13.975 13.975 0 0 1 223.729 44.961 Q 223.164 45.708 222.27 46.747 A 79.002 79.002 0 0 1 221.301 47.85 Q 219.201 50.2 216.551 52.7 A 58.694 58.694 0 0 1 214.261 54.754 A 45.644 45.644 0 0 1 211.401 57 A 18.104 18.104 0 0 1 210.477 57.626 Q 209.298 58.369 208.38 58.642 A 3.457 3.457 0 0 1 207.401 58.8 A 3.475 3.475 0 0 1 207.23 58.796 Q 205.211 58.697 204.804 56.21 A 8.769 8.769 0 0 1 204.701 54.8 L 204.701 54.05 A 2.713 2.713 0 0 1 204.722 53.723 A 3.473 3.473 0 0 1 204.801 53.3 Q 205.01 51.284 205.992 48.397 A 51.418 51.418 0 0 1 207.001 45.7 Q 208.101 43.1 209.501 40.75 Q 210.901 38.4 211.801 35.9 Q 212.301 34.1 212.301 33.2 Q 212.301 31.199 210.88 30.738 A 3.171 3.171 0 0 0 209.901 30.6 A 4.29 4.29 0 0 0 209.655 30.607 Q 207.831 30.712 205.351 32.35 Q 202.701 34.1 199.651 36.9 Q 196.601 39.7 193.801 42.7 Q 191.001 45.7 188.751 48.3 A 123.134 123.134 0 0 0 187.765 49.453 Q 186.267 51.228 185.501 52.3 A 1541.625 1541.625 0 0 1 185.81 51.426 Q 186.18 50.381 186.682 48.963 A 5967.589 5967.589 0 0 1 187.201 47.5 A 157.442 157.442 0 0 1 188.068 45.119 A 193.382 193.382 0 0 1 189.701 40.9 A 249.596 249.596 0 0 1 189.886 40.439 Q 190.531 38.837 191.132 37.407 A 148.027 148.027 0 0 1 192.301 34.7 A 16.371 16.371 0 0 0 192.371 34.53 Q 192.685 33.751 192.77 33.294 A 1.643 1.643 0 0 0 192.801 33 Q 192.801 31.6 189.801 31.6 A 4.817 4.817 0 0 0 189.412 31.615 Q 188.119 31.72 187.551 32.55 Q 186.901 33.5 186.701 34.65 A 25.716 25.716 0 0 1 186.635 35.014 Q 186.527 35.585 186.42 35.996 A 6.5 6.5 0 0 1 186.301 36.4 A 79.652 79.652 0 0 0 186.001 37.216 Q 185.478 38.656 184.751 40.8 Q 183.801 43.6 182.701 46.8 A 1276.318 1276.318 0 0 1 182.427 47.597 A 1163.447 1163.447 0 0 1 180.551 53 A 394.181 394.181 0 0 1 179.919 54.792 Q 179.615 55.647 179.336 56.418 A 208.646 208.646 0 0 1 178.701 58.15 Q 178.076 59.83 177.756 60.564 A 7.295 7.295 0 0 1 177.601 60.9 A 1.756 1.756 0 0 0 177.593 60.918 Q 177.351 61.502 177.822 61.586 Z M 473.422 61.586 A 1.024 1.024 0 0 0 473.601 61.6 A 3.134 3.134 0 0 0 474.036 61.567 Q 474.885 61.447 476.251 60.9 Q 478.001 60.2 478.501 59.9 A 2.091 2.091 0 0 0 478.8 59.684 Q 479.361 59.211 480.332 57.996 A 42.668 42.668 0 0 0 480.951 57.2 Q 482.701 54.9 485.051 51.7 Q 487.401 48.5 489.901 45.45 Q 492.401 42.4 494.601 40.5 Q 496.326 38.919 497.534 38.009 A 14.471 14.471 0 0 1 498.401 37.4 Q 499.801 36.5 500.501 36.5 A 1.002 1.002 0 0 1 500.679 36.515 Q 501.074 36.587 501.17 36.998 A 1.33 1.33 0 0 1 501.201 37.3 A 2.48 2.48 0 0 1 501.177 37.632 Q 501.1 38.205 500.77 39 A 12.669 12.669 0 0 1 500.401 39.8 Q 499.601 41.2 498.301 43.9 A 48.411 48.411 0 0 0 497.901 44.753 A 53.975 53.975 0 0 0 495.951 49.65 A 20.812 20.812 0 0 0 495.252 52.161 A 15.813 15.813 0 0 0 494.901 55.4 A 8.072 8.072 0 0 0 494.958 56.375 A 6.249 6.249 0 0 0 496.101 59.35 A 4.032 4.032 0 0 0 497.025 60.263 Q 497.67 60.724 498.543 60.992 A 8.314 8.314 0 0 0 500.101 61.3 A 10.765 10.765 0 0 0 500.59 61.311 Q 502.545 61.311 504.501 60.6 A 24.323 24.323 0 0 0 505.106 60.371 Q 505.993 60.022 506.755 59.637 A 13.932 13.932 0 0 0 508.201 58.8 Q 510.701 57 513.301 54.45 Q 515.901 51.9 518.051 49.35 Q 519.529 47.597 520.416 46.246 A 14.286 14.286 0 0 0 521.101 45.1 Q 521.19 44.878 521.19 44.695 A 0.598 0.598 0 0 0 521.051 44.3 A 0.815 0.815 0 0 0 520.74 44.065 A 0.864 0.864 0 0 0 520.401 44 A 0.629 0.629 0 0 0 520.202 44.033 Q 520.002 44.1 519.801 44.3 A 13.975 13.975 0 0 1 519.329 44.961 Q 518.764 45.708 517.87 46.747 A 79.002 79.002 0 0 1 516.901 47.85 Q 514.801 50.2 512.151 52.7 A 58.694 58.694 0 0 1 509.861 54.754 A 45.644 45.644 0 0 1 507.001 57 A 18.104 18.104 0 0 1 506.077 57.626 Q 504.898 58.369 503.98 58.642 A 3.457 3.457 0 0 1 503.001 58.8 A 3.475 3.475 0 0 1 502.83 58.796 Q 500.811 58.697 500.404 56.21 A 8.769 8.769 0 0 1 500.301 54.8 L 500.301 54.05 A 2.713 2.713 0 0 1 500.322 53.723 A 3.473 3.473 0 0 1 500.401 53.3 Q 500.61 51.284 501.592 48.397 A 51.418 51.418 0 0 1 502.601 45.7 Q 503.701 43.1 505.101 40.75 Q 506.501 38.4 507.401 35.9 Q 507.901 34.1 507.901 33.2 Q 507.901 31.199 506.48 30.738 A 3.171 3.171 0 0 0 505.501 30.6 A 4.29 4.29 0 0 0 505.255 30.607 Q 503.431 30.712 500.951 32.35 Q 498.301 34.1 495.251 36.9 Q 492.201 39.7 489.401 42.7 Q 486.601 45.7 484.351 48.3 A 123.134 123.134 0 0 0 483.365 49.453 Q 481.867 51.228 481.101 52.3 A 1541.625 1541.625 0 0 1 481.41 51.426 Q 481.78 50.381 482.282 48.963 A 5967.589 5967.589 0 0 1 482.801 47.5 A 157.442 157.442 0 0 1 483.668 45.119 A 193.382 193.382 0 0 1 485.301 40.9 A 249.596 249.596 0 0 1 485.486 40.439 Q 486.131 38.837 486.732 37.407 A 148.027 148.027 0 0 1 487.901 34.7 A 16.371 16.371 0 0 0 487.971 34.53 Q 488.285 33.751 488.37 33.294 A 1.643 1.643 0 0 0 488.401 33 Q 488.401 31.6 485.401 31.6 A 4.817 4.817 0 0 0 485.012 31.615 Q 483.719 31.72 483.151 32.55 Q 482.501 33.5 482.301 34.65 A 25.716 25.716 0 0 1 482.235 35.014 Q 482.127 35.585 482.02 35.996 A 6.5 6.5 0 0 1 481.901 36.4 A 79.652 79.652 0 0 0 481.601 37.216 Q 481.078 38.656 480.351 40.8 Q 479.401 43.6 478.301 46.8 A 1276.318 1276.318 0 0 1 478.027 47.597 A 1163.447 1163.447 0 0 1 476.151 53 A 394.181 394.181 0 0 1 475.519 54.792 Q 475.215 55.647 474.936 56.418 A 208.646 208.646 0 0 1 474.301 58.15 Q 473.676 59.83 473.356 60.564 A 7.295 7.295 0 0 1 473.201 60.9 A 1.756 1.756 0 0 0 473.193 60.918 Q 472.951 61.502 473.422 61.586 Z M 426.852 61.061 A 6.908 6.908 0 0 0 428.701 61.3 A 10.69 10.69 0 0 0 429.451 61.274 A 11.527 11.527 0 0 0 432.701 60.55 Q 433.764 60.152 434.628 59.683 A 10.297 10.297 0 0 0 436.001 58.8 Q 438.501 57 441.101 54.45 Q 443.701 51.9 445.851 49.35 Q 447.329 47.597 448.216 46.246 A 14.286 14.286 0 0 0 448.901 45.1 Q 449.065 44.828 449.065 44.614 A 0.476 0.476 0 0 0 448.951 44.3 A 0.815 0.815 0 0 0 448.64 44.065 A 0.864 0.864 0 0 0 448.301 44 A 0.942 0.942 0 0 0 448.169 44.009 A 0.646 0.646 0 0 0 447.701 44.3 Q 446.901 45.5 444.751 47.85 A 81.988 81.988 0 0 1 443.068 49.634 A 100.391 100.391 0 0 1 439.951 52.7 A 58.694 58.694 0 0 1 437.661 54.754 A 45.644 45.644 0 0 1 434.801 57 A 18.104 18.104 0 0 1 433.877 57.626 Q 432.698 58.369 431.78 58.642 A 3.457 3.457 0 0 1 430.801 58.8 A 3.475 3.475 0 0 1 430.63 58.796 Q 428.611 58.697 428.204 56.21 A 8.769 8.769 0 0 1 428.101 54.8 L 428.101 54.05 A 2.713 2.713 0 0 1 428.122 53.723 A 3.473 3.473 0 0 1 428.201 53.3 Q 428.901 48 431.301 43.4 A 67.508 67.508 0 0 1 431.659 42.744 Q 432.294 41.596 433.251 39.95 Q 434.501 37.8 435.751 35.7 A 3212.847 3212.847 0 0 1 435.796 35.624 Q 437.012 33.582 437.601 32.6 A 1.704 1.704 0 0 0 437.62 32.566 Q 438.001 31.84 437.362 31.312 A 2.205 2.205 0 0 0 437.051 31.1 A 6.639 6.639 0 0 0 435.823 30.562 A 8.968 8.968 0 0 0 434.551 30.25 A 29.843 29.843 0 0 0 433.898 30.145 Q 432.933 30 432.401 30 Q 431.876 30.75 431.07 32.119 A 86.362 86.362 0 0 0 430.501 33.1 Q 429.301 35.2 428.051 37.4 A 61.59 61.59 0 0 1 427.294 38.697 Q 426.928 39.306 426.586 39.838 A 29.04 29.04 0 0 1 425.801 41 Q 424.701 42.7 422.651 45.55 A 67.882 67.882 0 0 1 421.561 47.023 A 78.315 78.315 0 0 1 418.051 51.3 A 38.82 38.82 0 0 1 416.117 53.349 A 31.408 31.408 0 0 1 412.801 56.2 A 14.142 14.142 0 0 1 411.869 56.837 Q 410.924 57.426 410.017 57.761 A 6.67 6.67 0 0 1 407.701 58.2 A 3.922 3.922 0 0 1 407.218 58.172 Q 405.418 57.948 405.017 55.978 A 6.422 6.422 0 0 1 404.901 54.7 A 9.2 9.2 0 0 1 404.969 53.612 Q 405.068 52.782 405.311 51.85 A 19.713 19.713 0 0 1 405.901 50 A 31.427 31.427 0 0 1 406.211 49.16 A 27.85 27.85 0 0 1 408.951 43.8 Q 410.801 41 412.701 39 A 118.314 118.314 0 0 1 413.548 38.118 Q 414.859 36.766 415.701 36 A 5.78 5.78 0 0 0 416.003 35.676 Q 416.501 35.095 416.501 34.7 A 0.457 0.457 0 0 0 416.448 34.488 Q 416.351 34.299 416.074 34.136 A 2.413 2.413 0 0 0 415.801 34 A 2.455 2.455 0 0 0 415.55 33.892 Q 414.754 33.6 413.301 33.6 A 12.504 12.504 0 0 0 413.103 33.602 Q 411.626 33.625 410.501 34 A 0.68 0.68 0 0 0 410.34 34.068 Q 410.03 34.239 409.521 34.79 A 12.842 12.842 0 0 0 409.201 35.15 Q 408.301 36.2 407.401 37.6 Q 406.501 39 405.801 40 Q 403.801 43 402.501 46.45 Q 401.201 49.9 401.201 52.8 A 11.199 11.199 0 0 0 401.204 53.07 Q 401.227 54.003 401.406 54.811 A 6.302 6.302 0 0 0 402.201 56.8 Q 402.827 57.802 403.943 58.529 A 8.613 8.613 0 0 0 405.451 59.3 A 16.816 16.816 0 0 0 406.633 59.725 Q 408.139 60.2 409.301 60.2 A 7.655 7.655 0 0 0 411.282 59.942 A 8.504 8.504 0 0 0 413.851 58.75 A 16.995 16.995 0 0 0 415.421 57.55 A 20.162 20.162 0 0 0 417.851 55.05 A 61.661 61.661 0 0 0 418.421 54.347 A 55.095 55.095 0 0 0 421.201 50.55 A 115.689 115.689 0 0 0 422.09 49.198 Q 422.51 48.548 422.881 47.953 A 62.467 62.467 0 0 0 423.701 46.6 A 32.016 32.016 0 0 1 424.065 45.996 Q 424.588 45.149 424.901 44.794 A 1.409 1.409 0 0 1 425.101 44.6 Q 424.301 46.6 423.651 49.6 Q 423.306 51.194 423.144 52.618 A 21.137 21.137 0 0 0 423.001 55 Q 423.001 55.7 423.151 56.35 Q 423.235 56.716 423.304 57.034 A 32.208 32.208 0 0 1 423.401 57.5 A 8.516 8.516 0 0 0 423.689 58.278 Q 424.364 59.851 425.501 60.5 A 5.862 5.862 0 0 0 426.852 61.061 Z M 64.001 49 L 63.801 49 Q 62.932 49 62.644 48.643 A 0.683 0.683 0 0 1 62.501 48.2 Q 62.501 47.723 63.23 47.701 A 2.391 2.391 0 0 1 63.301 47.7 A 8.916 8.916 0 0 0 65.011 47.37 Q 66.633 46.904 68.672 45.821 A 32.709 32.709 0 0 0 69.351 45.45 A 55.95 55.95 0 0 0 73.188 43.097 A 43.864 43.864 0 0 0 75.801 41.2 Q 77.001 40.2 78.651 38.4 A 8.281 8.281 0 0 0 79.517 37.292 Q 79.927 36.654 80.123 36.028 A 3.762 3.762 0 0 0 80.301 34.9 A 2.755 2.755 0 0 0 80.22 34.202 Q 79.986 33.309 79.068 33.14 A 2.578 2.578 0 0 0 78.601 33.1 A 4.45 4.45 0 0 0 77.347 33.287 A 5.567 5.567 0 0 0 76.751 33.5 Q 75.801 33.9 75.201 34.1 A 22.549 22.549 0 0 0 72.942 35.368 Q 71.736 36.132 70.441 37.127 A 46.729 46.729 0 0 0 68.801 38.45 Q 65.301 41.4 62.451 45.05 A 25.927 25.927 0 0 0 60.07 48.655 A 19.612 19.612 0 0 0 58.501 52.4 A 7.598 7.598 0 0 0 58.204 53.381 A 6.342 6.342 0 0 0 58.101 53.95 A 11.216 11.216 0 0 0 58.005 55.136 A 10.001 10.001 0 0 0 58.001 55.4 A 5.804 5.804 0 0 0 58.131 56.671 Q 58.309 57.466 58.734 58.039 A 3.097 3.097 0 0 0 59.551 58.8 A 6.157 6.157 0 0 0 61.834 59.677 A 8.348 8.348 0 0 0 63.301 59.8 A 16.533 16.533 0 0 0 67.826 59.146 A 20.724 20.724 0 0 0 70.101 58.35 A 35.741 35.741 0 0 0 76.488 54.884 A 39.571 39.571 0 0 0 76.901 54.6 Q 80.201 52.3 82.951 49.65 Q 85.701 47 87.601 44.5 A 1.389 1.389 0 0 1 87.819 44.267 A 0.918 0.918 0 0 1 88.301 44.05 A 1.372 1.372 0 0 1 88.373 44.043 Q 88.71 44.019 88.801 44.2 A 0.581 0.581 0 0 1 89.003 44.29 Q 89.201 44.434 89.201 44.75 Q 89.201 45.2 89.001 45.6 A 49.195 49.195 0 0 1 84.664 50.809 A 59.087 59.087 0 0 1 82.251 53.2 Q 78.301 56.9 73.551 59.35 Q 68.801 61.8 63.701 61.8 A 16.206 16.206 0 0 1 59.654 61.315 A 12.946 12.946 0 0 1 55.901 59.7 A 6.79 6.79 0 0 1 52.708 54.775 A 9.816 9.816 0 0 1 52.601 53.3 A 9.673 9.673 0 0 1 52.79 51.476 Q 52.963 50.58 53.294 49.57 A 23.752 23.752 0 0 1 54.001 47.7 Q 55.001 45.4 57.701 42.4 Q 60.401 39.4 64.001 36.55 Q 67.601 33.7 71.301 31.85 Q 75.001 30 78.001 30 A 6.981 6.981 0 0 1 79.16 30.093 A 5.588 5.588 0 0 1 80.001 30.3 A 5.196 5.196 0 0 1 81.082 30.819 A 3.481 3.481 0 0 1 82.351 32.2 Q 83.001 33.5 83.001 34.9 Q 83.001 36.2 82.601 37.4 A 9.772 9.772 0 0 1 82.104 38.623 A 7.72 7.72 0 0 1 81.601 39.5 A 14.687 14.687 0 0 1 79.086 42.348 A 20.013 20.013 0 0 1 76.451 44.3 A 34.448 34.448 0 0 1 71.156 47.032 A 30.811 30.811 0 0 1 69.651 47.6 A 40.913 40.913 0 0 1 67.617 48.253 Q 65.653 48.822 64.205 48.98 A 11.524 11.524 0 0 1 64.001 49 Z M 98.054 61.301 A 6.551 6.551 0 0 0 99.701 61.5 A 10.529 10.529 0 0 0 101.797 61.281 A 13.964 13.964 0 0 0 103.951 60.65 A 21.02 21.02 0 0 0 105.11 60.174 Q 106.557 59.527 107.501 58.8 A 41.342 41.342 0 0 0 109.708 57.091 A 52.411 52.411 0 0 0 112.601 54.5 A 65.75 65.75 0 0 0 113.87 53.247 A 57.567 57.567 0 0 0 117.301 49.45 A 91.828 91.828 0 0 0 117.485 49.226 Q 119.45 46.825 120.501 45.2 A 1.399 1.399 0 0 0 120.552 45.107 Q 120.71 44.792 120.616 44.541 A 0.634 0.634 0 0 0 120.501 44.35 Q 120.201 44 119.801 44 A 0.942 0.942 0 0 0 119.669 44.009 A 0.646 0.646 0 0 0 119.201 44.3 A 17.167 17.167 0 0 1 119.168 44.344 Q 118.263 45.543 116.201 47.85 A 69.742 69.742 0 0 1 114.556 49.627 A 84.229 84.229 0 0 1 111.501 52.65 A 51.11 51.11 0 0 1 109.176 54.717 A 38.972 38.972 0 0 1 106.451 56.8 Q 104.843 57.916 103.558 58.299 A 4.41 4.41 0 0 1 102.301 58.5 A 2.665 2.665 0 0 1 102.001 58.484 Q 100.755 58.343 100.479 56.976 A 4.449 4.449 0 0 1 100.401 56.1 Q 100.401 54.9 101.201 52.5 A 18.225 18.225 0 0 1 101.566 51.545 Q 102.461 49.376 104.401 45.9 Q 106.801 41.6 110.201 37.7 A 58.493 58.493 0 0 0 110.398 37.476 Q 111.082 36.693 111.668 35.965 A 35.164 35.164 0 0 0 112.751 34.55 A 10.122 10.122 0 0 0 112.936 34.286 Q 113.801 33.008 113.801 32.1 A 1.143 1.143 0 0 0 113.305 31.129 Q 112.581 30.6 110.801 30.6 Q 109.801 30.6 108.851 30.65 Q 107.901 30.7 106.901 30.7 Q 105.001 30.7 103.201 30.6 L 99.601 30.4 Q 100.501 29 101.551 27.3 Q 102.601 25.6 103.501 24.2 Q 103.904 23.461 104.036 22.903 A 2.192 2.192 0 0 0 104.101 22.4 A 1.413 1.413 0 0 0 104.088 22.203 A 0.969 0.969 0 0 0 103.651 21.5 Q 103.201 21.2 102.701 21.2 A 2.439 2.439 0 0 0 102.038 21.291 A 2.688 2.688 0 0 0 101.201 21.7 A 23.777 23.777 0 0 0 100.939 22.005 Q 100.29 22.773 99.301 24.05 Q 98.101 25.6 96.701 27 Q 95.401 28.3 93.901 29.1 A 22.133 22.133 0 0 1 93.807 29.15 Q 93.106 29.52 92.448 29.801 A 13.556 13.556 0 0 1 91.101 30.3 A 0.833 0.833 0 0 0 91.05 30.312 Q 90.601 30.432 90.601 31 A 0.838 0.838 0 0 0 90.645 31.265 Q 90.734 31.533 91.001 31.8 A 1.855 1.855 0 0 0 91.099 31.891 Q 91.31 32.074 91.591 32.209 A 3.199 3.199 0 0 0 92.101 32.4 Q 92.514 32.469 93.115 32.514 A 23.652 23.652 0 0 0 93.701 32.55 A 66.891 66.891 0 0 0 94.142 32.571 Q 94.818 32.6 95.201 32.6 Q 91.301 40.1 85.901 46.7 Q 85.301 47.3 85.301 47.9 Q 85.301 48.367 85.664 48.47 A 0.864 0.864 0 0 0 85.901 48.5 Q 86.278 48.5 86.769 48.102 A 4.34 4.34 0 0 0 87.101 47.8 Q 90.101 44.1 92.751 40.25 Q 95.401 36.4 98.201 32.6 Q 99.301 32.6 100.351 32.75 Q 101.401 32.9 102.601 33.1 Q 104.701 33.4 105.501 34.15 A 3.739 3.739 0 0 1 105.695 34.346 Q 105.926 34.596 106.069 34.852 A 1.722 1.722 0 0 1 106.301 35.7 Q 106.301 36.533 105.87 37.366 A 5.565 5.565 0 0 1 105.251 38.3 Q 104.201 39.6 103.401 40.4 Q 101.901 42.1 99.801 44.55 Q 97.701 47 96.151 49.85 A 14.195 14.195 0 0 0 95.788 50.565 A 11.895 11.895 0 0 0 94.601 55.7 Q 94.601 56.8 94.901 57.9 A 7.359 7.359 0 0 0 95.12 58.651 Q 95.328 59.236 95.615 59.685 A 3.178 3.178 0 0 0 96.701 60.75 A 5.405 5.405 0 0 0 98.054 61.301 Z M 457.954 61.301 A 6.551 6.551 0 0 0 459.601 61.5 A 10.529 10.529 0 0 0 461.697 61.281 A 13.964 13.964 0 0 0 463.851 60.65 A 21.02 21.02 0 0 0 465.01 60.174 Q 466.457 59.527 467.401 58.8 A 41.342 41.342 0 0 0 469.608 57.091 A 52.411 52.411 0 0 0 472.501 54.5 A 65.75 65.75 0 0 0 473.77 53.247 A 57.567 57.567 0 0 0 477.201 49.45 A 91.828 91.828 0 0 0 477.385 49.226 Q 479.35 46.825 480.401 45.2 A 1.399 1.399 0 0 0 480.452 45.107 Q 480.61 44.792 480.516 44.541 A 0.634 0.634 0 0 0 480.401 44.35 Q 480.101 44 479.701 44 A 0.942 0.942 0 0 0 479.569 44.009 A 0.646 0.646 0 0 0 479.101 44.3 A 17.167 17.167 0 0 1 479.068 44.344 Q 478.163 45.543 476.101 47.85 A 69.742 69.742 0 0 1 474.456 49.627 A 84.229 84.229 0 0 1 471.401 52.65 A 51.11 51.11 0 0 1 469.076 54.717 A 38.972 38.972 0 0 1 466.351 56.8 Q 464.743 57.916 463.458 58.299 A 4.41 4.41 0 0 1 462.201 58.5 A 2.665 2.665 0 0 1 461.901 58.484 Q 460.655 58.343 460.379 56.976 A 4.449 4.449 0 0 1 460.301 56.1 Q 460.301 54.9 461.101 52.5 A 18.225 18.225 0 0 1 461.466 51.545 Q 462.361 49.376 464.301 45.9 Q 466.701 41.6 470.101 37.7 A 58.493 58.493 0 0 0 470.298 37.476 Q 470.982 36.693 471.568 35.965 A 35.164 35.164 0 0 0 472.651 34.55 A 10.122 10.122 0 0 0 472.836 34.286 Q 473.701 33.008 473.701 32.1 A 1.143 1.143 0 0 0 473.205 31.129 Q 472.481 30.6 470.701 30.6 Q 469.701 30.6 468.751 30.65 Q 467.801 30.7 466.801 30.7 Q 464.901 30.7 463.101 30.6 L 459.501 30.4 Q 460.401 29 461.451 27.3 Q 462.501 25.6 463.401 24.2 Q 463.804 23.461 463.936 22.903 A 2.192 2.192 0 0 0 464.001 22.4 A 1.413 1.413 0 0 0 463.988 22.203 A 0.969 0.969 0 0 0 463.551 21.5 Q 463.101 21.2 462.601 21.2 A 2.439 2.439 0 0 0 461.938 21.291 A 2.688 2.688 0 0 0 461.101 21.7 A 23.777 23.777 0 0 0 460.839 22.005 Q 460.19 22.773 459.201 24.05 Q 458.001 25.6 456.601 27 Q 455.301 28.3 453.801 29.1 A 22.133 22.133 0 0 1 453.707 29.15 Q 453.006 29.52 452.348 29.801 A 13.556 13.556 0 0 1 451.001 30.3 A 0.833 0.833 0 0 0 450.95 30.312 Q 450.501 30.432 450.501 31 A 0.838 0.838 0 0 0 450.545 31.265 Q 450.634 31.533 450.901 31.8 A 1.855 1.855 0 0 0 450.999 31.891 Q 451.21 32.074 451.491 32.209 A 3.199 3.199 0 0 0 452.001 32.4 Q 452.414 32.469 453.015 32.514 A 23.652 23.652 0 0 0 453.601 32.55 A 66.891 66.891 0 0 0 454.042 32.571 Q 454.718 32.6 455.101 32.6 Q 451.201 40.1 445.801 46.7 Q 445.201 47.3 445.201 47.9 Q 445.201 48.367 445.564 48.47 A 0.864 0.864 0 0 0 445.801 48.5 Q 446.178 48.5 446.669 48.102 A 4.34 4.34 0 0 0 447.001 47.8 Q 450.001 44.1 452.651 40.25 Q 455.301 36.4 458.101 32.6 Q 459.201 32.6 460.251 32.75 Q 461.301 32.9 462.501 33.1 Q 464.601 33.4 465.401 34.15 A 3.739 3.739 0 0 1 465.595 34.346 Q 465.826 34.596 465.969 34.852 A 1.722 1.722 0 0 1 466.201 35.7 Q 466.201 36.533 465.77 37.366 A 5.565 5.565 0 0 1 465.151 38.3 Q 464.101 39.6 463.301 40.4 Q 461.801 42.1 459.701 44.55 Q 457.601 47 456.051 49.85 A 14.195 14.195 0 0 0 455.688 50.565 A 11.895 11.895 0 0 0 454.501 55.7 Q 454.501 56.8 454.801 57.9 A 7.359 7.359 0 0 0 455.02 58.651 Q 455.228 59.236 455.515 59.685 A 3.178 3.178 0 0 0 456.601 60.75 A 5.405 5.405 0 0 0 457.954 61.301 Z M 119.001 65.3 Q 115.001 65.3 115.001 63.1 Q 115.001 61.863 116.018 60.565 A 8.529 8.529 0 0 1 116.701 59.8 Q 118.001 58.5 119.601 57.7 A 28.274 28.274 0 0 1 120.159 57.428 Q 121.256 56.91 121.589 56.9 A 0.428 0.428 0 0 1 121.601 56.9 Q 122.101 56.9 122.151 57.3 A 0.573 0.573 0 0 1 122.156 57.371 Q 122.156 57.718 121.701 57.9 A 13.033 13.033 0 0 0 120.916 58.414 Q 120.489 58.714 120.023 59.083 A 26.104 26.104 0 0 0 119.451 59.55 Q 118.201 60.6 118.201 61.8 A 1.914 1.914 0 0 0 118.312 62.481 Q 118.661 63.4 120.101 63.4 A 8.803 8.803 0 0 0 122.752 62.973 Q 123.807 62.641 124.901 62.05 A 20.709 20.709 0 0 0 129.416 58.731 A 23.035 23.035 0 0 0 129.551 58.6 A 26.376 26.376 0 0 0 131.61 56.355 A 20.45 20.45 0 0 0 133.051 54.35 A 12.195 12.195 0 0 0 133.748 53.091 Q 134.054 52.445 134.217 51.857 A 4.724 4.724 0 0 0 134.401 50.6 A 3.629 3.629 0 0 0 133.712 48.478 A 4.654 4.654 0 0 0 133.501 48.2 A 4.996 4.996 0 0 0 132.889 47.588 Q 132.196 46.992 131.04 46.3 A 29.721 29.721 0 0 0 129.801 45.6 Q 127.901 44.5 126.151 43.3 A 8.675 8.675 0 0 1 124.373 41.699 A 7.549 7.549 0 0 1 123.501 40.4 A 55.758 55.758 0 0 1 122.838 41.528 Q 122.535 42.03 122.188 42.585 A 112.933 112.933 0 0 1 121.451 43.75 A 41.148 41.148 0 0 1 119.902 45.991 A 51.824 51.824 0 0 1 118.501 47.8 Q 118.1 48.201 117.699 48.334 A 1.258 1.258 0 0 1 117.301 48.4 A 1.052 1.052 0 0 1 117.078 48.379 Q 116.757 48.309 116.709 48.011 A 0.702 0.702 0 0 1 116.701 47.9 Q 116.701 47.622 117.13 47.001 A 7.834 7.834 0 0 1 117.201 46.9 Q 119.268 44.45 120.515 42.293 A 19.462 19.462 0 0 0 121.201 41 A 94.004 94.004 0 0 0 121.801 39.731 Q 122.626 37.95 123.001 36.9 A 9.54 9.54 0 0 1 124.37 33.181 A 12.886 12.886 0 0 1 125.701 31.4 A 22.249 22.249 0 0 1 129.809 27.8 A 26.239 26.239 0 0 1 131.301 26.85 A 33.065 33.065 0 0 1 137.62 23.941 A 30.752 30.752 0 0 1 138.051 23.8 Q 140.925 22.884 143.278 22.731 A 14.224 14.224 0 0 1 144.201 22.7 Q 146.901 22.7 149.001 23.7 Q 151.006 24.655 151.097 26.704 A 4.444 4.444 0 0 1 151.101 26.9 A 4.791 4.791 0 0 1 150.931 28.13 Q 150.757 28.789 150.401 29.5 Q 149.501 31.4 147.401 32.9 Q 147.318 32.983 147.167 32.997 A 0.703 0.703 0 0 1 147.101 33 A 1.33 1.33 0 0 1 146.799 32.969 Q 146.387 32.873 146.316 32.479 A 1.002 1.002 0 0 1 146.301 32.3 Q 146.301 31.8 146.801 31.3 Q 147.601 30.6 148.101 29.6 Q 148.592 28.618 148.601 27.732 A 3.249 3.249 0 0 0 148.601 27.7 A 2.189 2.189 0 0 0 148.478 26.935 Q 148.093 25.9 146.501 25.9 A 10.852 10.852 0 0 0 144.912 26.029 Q 143.261 26.275 141.085 26.989 A 38.62 38.62 0 0 0 140.751 27.1 A 30.388 30.388 0 0 0 134.295 30.141 A 28.496 28.496 0 0 0 134.201 30.2 A 30.511 30.511 0 0 0 130.768 32.764 A 24.198 24.198 0 0 0 128.501 35 A 14.426 14.426 0 0 0 127.441 36.339 Q 126.39 37.858 126.23 39.145 A 3.681 3.681 0 0 0 126.201 39.6 A 2.954 2.954 0 0 0 126.772 41.343 A 3.682 3.682 0 0 0 126.851 41.45 Q 127.382 42.145 128.749 43.007 A 20.149 20.149 0 0 0 129.401 43.4 Q 130.167 43.86 131.401 44.524 A 111.098 111.098 0 0 0 132.201 44.95 Q 133.649 45.715 134.774 46.382 A 38.162 38.162 0 0 1 135.301 46.7 A 14.898 14.898 0 0 1 137.046 47.929 Q 139.401 49.878 139.401 52 A 5.87 5.87 0 0 1 138.845 54.44 Q 138.346 55.539 137.401 56.65 A 19.197 19.197 0 0 1 134.787 59.167 A 25.406 25.406 0 0 1 132.251 60.95 Q 129.101 62.9 125.601 64.1 Q 122.101 65.3 119.001 65.3 Z M 272.25 61.152 A 13.155 13.155 0 0 0 274.301 61.3 Q 277.501 61.3 280.601 59.1 Q 283.101 57.2 285.801 54.65 A 85.448 85.448 0 0 0 287.44 53.061 A 72.576 72.576 0 0 0 290.701 49.6 Q 292.214 47.881 293.159 46.541 A 16.618 16.618 0 0 0 293.901 45.4 Q 294.065 45.073 294.065 44.805 A 0.749 0.749 0 0 0 293.951 44.4 A 1.113 1.113 0 0 0 293.842 44.253 A 0.696 0.696 0 0 0 293.301 44 A 0.629 0.629 0 0 0 293.102 44.033 Q 292.902 44.1 292.701 44.3 A 15.342 15.342 0 0 1 292.271 44.888 Q 291.637 45.716 290.62 46.869 A 80.549 80.549 0 0 1 289.601 48 A 85.663 85.663 0 0 1 287.881 49.821 A 104.46 104.46 0 0 1 284.701 52.95 A 45.779 45.779 0 0 1 282.516 54.89 A 36.16 36.16 0 0 1 279.351 57.25 Q 277.602 58.406 276.223 58.798 A 4.845 4.845 0 0 1 274.901 59 A 3.765 3.765 0 0 1 274.623 58.99 Q 272.941 58.866 272.201 57.2 A 8.963 8.963 0 0 1 271.571 55.085 A 12.186 12.186 0 0 1 271.401 53 L 271.401 51.95 Q 271.401 51.4 271.501 50.9 A 196.354 196.354 0 0 1 271.603 50.545 Q 271.783 49.919 272.051 49 A 75.408 75.408 0 0 0 272.057 48.981 Q 272.23 48.385 272.416 47.715 A 143.214 143.214 0 0 0 272.801 46.3 Q 282.201 38.6 290.651 29.6 Q 299.101 20.6 305.201 10 A 13.45 13.45 0 0 0 305.815 8.794 A 10.225 10.225 0 0 0 306.351 7.3 A 13.082 13.082 0 0 0 306.448 6.918 Q 306.701 5.851 306.701 5 A 6.256 6.256 0 0 0 306.585 3.76 A 4.032 4.032 0 0 0 305.051 1.25 A 5.958 5.958 0 0 0 303.177 0.294 A 7.082 7.082 0 0 0 301.101 0 A 13.345 13.345 0 0 0 300.679 0.007 A 11.117 11.117 0 0 0 295.001 1.7 Q 292.301 3.4 290.101 5.9 A 97.926 97.926 0 0 0 289.827 6.213 A 89.628 89.628 0 0 0 286.001 10.9 A 59.379 59.379 0 0 0 284.684 12.784 Q 283.991 13.815 283.227 15.023 A 139.553 139.553 0 0 0 281.551 17.75 Q 279.001 22 276.451 27.05 Q 273.901 32.1 271.701 37.2 Q 269.501 42.3 268.151 46.7 A 40.708 40.708 0 0 0 267.41 49.426 Q 267.113 50.708 266.961 51.829 A 16.205 16.205 0 0 0 266.801 54 A 10.292 10.292 0 0 0 266.921 55.599 A 7.639 7.639 0 0 0 268.451 59.2 A 4.788 4.788 0 0 0 270.375 60.632 Q 271.199 60.986 272.25 61.152 Z M 567.85 61.152 A 13.155 13.155 0 0 0 569.901 61.3 Q 573.101 61.3 576.201 59.1 Q 578.701 57.2 581.401 54.65 A 85.448 85.448 0 0 0 583.04 53.061 A 72.576 72.576 0 0 0 586.301 49.6 Q 587.814 47.881 588.759 46.541 A 16.618 16.618 0 0 0 589.501 45.4 Q 589.665 45.073 589.665 44.805 A 0.749 0.749 0 0 0 589.551 44.4 A 1.113 1.113 0 0 0 589.442 44.253 A 0.696 0.696 0 0 0 588.901 44 A 0.629 0.629 0 0 0 588.702 44.033 Q 588.502 44.1 588.301 44.3 A 15.342 15.342 0 0 1 587.871 44.888 Q 587.237 45.716 586.22 46.869 A 80.549 80.549 0 0 1 585.201 48 A 85.663 85.663 0 0 1 583.481 49.821 A 104.46 104.46 0 0 1 580.301 52.95 A 45.779 45.779 0 0 1 578.116 54.89 A 36.16 36.16 0 0 1 574.951 57.25 Q 573.202 58.406 571.823 58.798 A 4.845 4.845 0 0 1 570.501 59 A 3.765 3.765 0 0 1 570.223 58.99 Q 568.541 58.866 567.801 57.2 A 8.963 8.963 0 0 1 567.171 55.085 A 12.186 12.186 0 0 1 567.001 53 L 567.001 51.95 Q 567.001 51.4 567.101 50.9 A 196.354 196.354 0 0 1 567.203 50.545 Q 567.383 49.919 567.651 49 A 75.408 75.408 0 0 0 567.657 48.981 Q 567.83 48.385 568.016 47.715 A 143.214 143.214 0 0 0 568.401 46.3 Q 577.801 38.6 586.251 29.6 Q 594.701 20.6 600.801 10 A 13.45 13.45 0 0 0 601.415 8.794 A 10.225 10.225 0 0 0 601.951 7.3 A 13.082 13.082 0 0 0 602.048 6.918 Q 602.301 5.851 602.301 5 A 6.256 6.256 0 0 0 602.185 3.76 A 4.032 4.032 0 0 0 600.651 1.25 A 5.958 5.958 0 0 0 598.777 0.294 A 7.082 7.082 0 0 0 596.701 0 A 13.345 13.345 0 0 0 596.279 0.007 A 11.117 11.117 0 0 0 590.601 1.7 Q 587.901 3.4 585.701 5.9 A 97.926 97.926 0 0 0 585.427 6.213 A 89.628 89.628 0 0 0 581.601 10.9 A 59.379 59.379 0 0 0 580.284 12.784 Q 579.591 13.815 578.827 15.023 A 139.553 139.553 0 0 0 577.151 17.75 Q 574.601 22 572.051 27.05 Q 569.501 32.1 567.301 37.2 Q 565.101 42.3 563.751 46.7 A 40.708 40.708 0 0 0 563.01 49.426 Q 562.713 50.708 562.561 51.829 A 16.205 16.205 0 0 0 562.401 54 A 10.292 10.292 0 0 0 562.521 55.599 A 7.639 7.639 0 0 0 564.051 59.2 A 4.788 4.788 0 0 0 565.975 60.632 Q 566.799 60.986 567.85 61.152 Z M 155.301 61.4 Q 152.501 61.4 150.401 60.1 A 6.753 6.753 0 0 1 147.393 56.147 Q 147.024 54.959 146.932 53.502 A 15.849 15.849 0 0 1 146.901 52.5 A 16.154 16.154 0 0 1 147.053 50.364 Q 147.194 49.307 147.467 48.135 A 30.39 30.39 0 0 1 147.701 47.2 A 17.337 17.337 0 0 1 148.524 44.927 Q 149.022 43.789 149.717 42.571 A 31.965 31.965 0 0 1 150.201 41.75 A 37.369 37.369 0 0 1 154.413 36.142 A 40.699 40.699 0 0 1 154.451 36.1 Q 156.901 33.4 159.801 31.7 A 13 13 0 0 1 162.61 30.452 A 10.29 10.29 0 0 1 165.601 30 A 8.152 8.152 0 0 1 166.594 30.058 Q 167.12 30.122 167.573 30.26 A 4.846 4.846 0 0 1 167.701 30.3 A 4.355 4.355 0 0 1 169.643 31.622 A 5.257 5.257 0 0 1 169.751 31.75 A 3.754 3.754 0 0 1 170.522 33.476 A 5.19 5.19 0 0 1 170.601 34.4 A 5.148 5.148 0 0 1 170.566 35.029 Q 170.428 36.141 169.751 36.3 Q 169.013 36.474 168.916 36.045 A 0.654 0.654 0 0 1 168.901 35.9 Q 168.901 35.7 168.951 35.5 Q 168.991 35.342 168.999 35.247 A 0.541 0.541 0 0 0 169.001 35.2 Q 169.001 34.4 168.551 33.75 Q 168.101 33.1 166.901 33.1 A 3.95 3.95 0 0 0 165.741 33.292 Q 164.512 33.671 162.951 34.8 A 22.886 22.886 0 0 0 160.876 36.508 Q 159.866 37.437 158.838 38.571 A 39.766 39.766 0 0 0 158.151 39.35 Q 155.701 42.2 153.851 45.6 A 23.882 23.882 0 0 0 152.027 49.85 A 20.212 20.212 0 0 0 151.401 52.4 A 11.884 11.884 0 0 0 151.296 53.006 A 9.937 9.937 0 0 0 151.251 53.35 Q 151.201 53.8 151.201 54.3 Q 151.201 56.6 152.251 58.15 A 3.389 3.389 0 0 0 154.406 59.578 A 5.472 5.472 0 0 0 155.601 59.7 A 7.613 7.613 0 0 0 159.252 58.741 A 10.759 10.759 0 0 0 161.001 57.55 A 24.359 24.359 0 0 0 165.113 53.16 A 27.709 27.709 0 0 0 165.651 52.4 A 46.416 46.416 0 0 0 167.041 50.249 Q 167.672 49.206 168.15 48.265 A 21.419 21.419 0 0 0 168.701 47.1 Q 169.277 45.805 169.594 44.768 A 11.426 11.426 0 0 0 169.801 44 A 14.544 14.544 0 0 0 169.978 43.118 Q 170.047 42.701 170.077 42.336 A 6.489 6.489 0 0 0 170.101 41.8 A 7.227 7.227 0 0 0 170.072 41.139 Q 170.042 40.813 169.981 40.529 A 4.106 4.106 0 0 0 169.951 40.4 Q 169.836 39.941 169.692 39.599 A 3.369 3.369 0 0 0 169.601 39.4 Q 169.445 38.932 169.411 38.646 A 1.235 1.235 0 0 1 169.401 38.5 A 1.545 1.545 0 0 1 169.908 37.322 A 1.981 1.981 0 0 1 170.051 37.2 A 2.611 2.611 0 0 1 170.608 36.867 A 1.986 1.986 0 0 1 171.401 36.7 Q 172.001 36.7 172.701 37.1 Q 173.424 37.281 174.636 37.38 A 25.991 25.991 0 0 0 174.901 37.4 A 39.22 39.22 0 0 0 176.729 37.486 A 47.689 47.689 0 0 0 177.901 37.5 Q 179.601 37.5 181.351 37.4 Q 182.855 37.314 184.026 37.081 A 12.793 12.793 0 0 0 184.401 37 A 0.746 0.746 0 0 1 184.546 36.948 Q 184.726 36.9 185.001 36.9 A 1.83 1.83 0 0 1 185.239 36.914 Q 185.494 36.948 185.609 37.062 A 0.322 0.322 0 0 1 185.701 37.3 Q 185.701 37.654 185.154 37.929 A 2.743 2.743 0 0 1 185.001 38 A 23.231 23.231 0 0 1 182.494 38.985 Q 181.232 39.393 180.086 39.57 A 11.457 11.457 0 0 1 178.751 39.7 A 177.8 177.8 0 0 1 176.794 39.761 Q 176.023 39.781 175.324 39.79 A 94.839 94.839 0 0 1 174.001 39.8 Q 174.124 41.335 173.681 43.003 A 13.596 13.596 0 0 1 172.901 45.15 Q 171.601 48 170.201 50.2 A 57.27 57.27 0 0 1 167.881 53.364 A 68.474 68.474 0 0 1 166.301 55.3 A 22.411 22.411 0 0 1 161.737 59.428 A 21.044 21.044 0 0 1 161.401 59.65 Q 158.701 61.4 155.301 61.4 Z M 378.301 61.4 Q 375.501 61.4 373.401 60.1 A 6.753 6.753 0 0 1 370.393 56.147 Q 370.024 54.959 369.932 53.502 A 15.849 15.849 0 0 1 369.901 52.5 A 16.154 16.154 0 0 1 370.053 50.364 Q 370.194 49.307 370.467 48.135 A 30.39 30.39 0 0 1 370.701 47.2 A 17.337 17.337 0 0 1 371.524 44.927 Q 372.022 43.789 372.717 42.571 A 31.965 31.965 0 0 1 373.201 41.75 A 37.369 37.369 0 0 1 377.413 36.142 A 40.699 40.699 0 0 1 377.451 36.1 Q 379.901 33.4 382.801 31.7 A 13 13 0 0 1 385.61 30.452 A 10.29 10.29 0 0 1 388.601 30 A 8.152 8.152 0 0 1 389.594 30.058 Q 390.12 30.122 390.573 30.26 A 4.846 4.846 0 0 1 390.701 30.3 A 4.355 4.355 0 0 1 392.643 31.622 A 5.257 5.257 0 0 1 392.751 31.75 A 3.754 3.754 0 0 1 393.522 33.476 A 5.19 5.19 0 0 1 393.601 34.4 A 5.148 5.148 0 0 1 393.566 35.029 Q 393.428 36.141 392.751 36.3 Q 392.013 36.474 391.916 36.045 A 0.654 0.654 0 0 1 391.901 35.9 Q 391.901 35.7 391.951 35.5 Q 391.991 35.342 391.999 35.247 A 0.541 0.541 0 0 0 392.001 35.2 Q 392.001 34.4 391.551 33.75 Q 391.101 33.1 389.901 33.1 A 3.95 3.95 0 0 0 388.741 33.292 Q 387.512 33.671 385.951 34.8 A 22.886 22.886 0 0 0 383.876 36.508 Q 382.866 37.437 381.838 38.571 A 39.766 39.766 0 0 0 381.151 39.35 Q 378.701 42.2 376.851 45.6 A 23.882 23.882 0 0 0 375.027 49.85 A 20.212 20.212 0 0 0 374.401 52.4 A 11.884 11.884 0 0 0 374.296 53.006 A 9.937 9.937 0 0 0 374.251 53.35 Q 374.201 53.8 374.201 54.3 Q 374.201 56.6 375.251 58.15 A 3.389 3.389 0 0 0 377.406 59.578 A 5.472 5.472 0 0 0 378.601 59.7 A 7.613 7.613 0 0 0 382.252 58.741 A 10.759 10.759 0 0 0 384.001 57.55 A 24.359 24.359 0 0 0 388.113 53.16 A 27.709 27.709 0 0 0 388.651 52.4 A 46.416 46.416 0 0 0 390.041 50.249 Q 390.672 49.206 391.15 48.265 A 21.419 21.419 0 0 0 391.701 47.1 Q 392.277 45.805 392.594 44.768 A 11.426 11.426 0 0 0 392.801 44 A 14.544 14.544 0 0 0 392.978 43.118 Q 393.047 42.701 393.077 42.336 A 6.489 6.489 0 0 0 393.101 41.8 A 7.227 7.227 0 0 0 393.072 41.139 Q 393.042 40.813 392.981 40.529 A 4.106 4.106 0 0 0 392.951 40.4 Q 392.836 39.941 392.692 39.599 A 3.369 3.369 0 0 0 392.601 39.4 Q 392.445 38.932 392.411 38.646 A 1.235 1.235 0 0 1 392.401 38.5 A 1.545 1.545 0 0 1 392.908 37.322 A 1.981 1.981 0 0 1 393.051 37.2 A 2.611 2.611 0 0 1 393.608 36.867 A 1.986 1.986 0 0 1 394.401 36.7 Q 395.001 36.7 395.701 37.1 Q 396.424 37.281 397.636 37.38 A 25.991 25.991 0 0 0 397.901 37.4 A 39.22 39.22 0 0 0 399.729 37.486 A 47.689 47.689 0 0 0 400.901 37.5 Q 402.601 37.5 404.351 37.4 Q 405.855 37.314 407.026 37.081 A 12.793 12.793 0 0 0 407.401 37 A 0.746 0.746 0 0 1 407.546 36.948 Q 407.726 36.9 408.001 36.9 A 1.83 1.83 0 0 1 408.239 36.914 Q 408.494 36.948 408.609 37.062 A 0.322 0.322 0 0 1 408.701 37.3 Q 408.701 37.654 408.154 37.929 A 2.743 2.743 0 0 1 408.001 38 A 23.231 23.231 0 0 1 405.494 38.985 Q 404.232 39.393 403.086 39.57 A 11.457 11.457 0 0 1 401.751 39.7 A 177.8 177.8 0 0 1 399.794 39.761 Q 399.023 39.781 398.324 39.79 A 94.839 94.839 0 0 1 397.001 39.8 Q 397.124 41.335 396.681 43.003 A 13.596 13.596 0 0 1 395.901 45.15 Q 394.601 48 393.201 50.2 A 57.27 57.27 0 0 1 390.881 53.364 A 68.474 68.474 0 0 1 389.301 55.3 A 22.411 22.411 0 0 1 384.737 59.428 A 21.044 21.044 0 0 1 384.401 59.65 Q 381.701 61.4 378.301 61.4 Z M 323.001 68 A 10.37 10.37 0 0 0 327.377 66.996 Q 328.775 66.351 330.166 65.293 A 18.568 18.568 0 0 0 330.351 65.15 Q 334.001 62.3 337.301 57.8 Q 340.601 53.3 343.401 48.2 A 129.294 129.294 0 0 0 346.444 42.32 A 103.414 103.414 0 0 0 348.201 38.5 Q 349.908 34.574 350.887 31.959 A 60.833 60.833 0 0 0 351.201 31.1 Q 343.001 33.8 336.001 38.3 Q 329.001 42.8 323.501 49.6 A 38.493 38.493 0 0 0 321.483 52.312 Q 320.483 53.795 319.774 55.198 A 20.111 20.111 0 0 0 319.151 56.55 A 22.156 22.156 0 0 0 318.382 58.684 Q 318.055 59.776 317.912 60.752 A 9.996 9.996 0 0 0 317.801 62.2 A 8.418 8.418 0 0 0 317.966 63.921 Q 318.282 65.433 319.201 66.45 A 4.614 4.614 0 0 0 322.067 67.936 A 6.58 6.58 0 0 0 323.001 68 Z M 274.201 42.3 A 45.58 45.58 0 0 0 277.953 39.418 Q 279.733 37.906 281.574 36.079 A 76.022 76.022 0 0 0 282.101 35.55 A 117.63 117.63 0 0 0 288.665 28.311 A 131.943 131.943 0 0 0 290.151 26.5 Q 294.101 21.6 297.351 16.8 A 109.729 109.729 0 0 0 299.613 13.327 Q 300.808 11.409 301.772 9.658 A 59.947 59.947 0 0 0 302.601 8.1 A 14.008 14.008 0 0 0 303.002 7.31 Q 303.295 6.681 303.451 6.15 A 6.779 6.779 0 0 0 303.622 5.435 Q 303.691 5.053 303.7 4.706 A 4.016 4.016 0 0 0 303.701 4.6 Q 303.701 2.7 302.101 2.7 Q 300.869 2.7 299.094 3.863 A 14.787 14.787 0 0 0 298.601 4.2 A 45.139 45.139 0 0 0 292.317 10.192 A 57.535 57.535 0 0 0 288.601 14.95 Q 284.001 21.5 280.401 28.7 A 213.293 213.293 0 0 0 276.667 36.547 A 169.455 169.455 0 0 0 274.201 42.3 Z M 569.801 42.3 A 45.58 45.58 0 0 0 573.553 39.418 Q 575.333 37.906 577.174 36.079 A 76.022 76.022 0 0 0 577.701 35.55 A 117.63 117.63 0 0 0 584.265 28.311 A 131.943 131.943 0 0 0 585.751 26.5 Q 589.701 21.6 592.951 16.8 A 109.729 109.729 0 0 0 595.213 13.327 Q 596.408 11.409 597.372 9.658 A 59.947 59.947 0 0 0 598.201 8.1 A 14.008 14.008 0 0 0 598.602 7.31 Q 598.895 6.681 599.051 6.15 A 6.779 6.779 0 0 0 599.222 5.435 Q 599.291 5.053 599.3 4.706 A 4.016 4.016 0 0 0 599.301 4.6 Q 599.301 2.7 597.701 2.7 Q 596.469 2.7 594.694 3.863 A 14.787 14.787 0 0 0 594.201 4.2 A 45.139 45.139 0 0 0 587.917 10.192 A 57.535 57.535 0 0 0 584.201 14.95 Q 579.601 21.5 576.001 28.7 A 213.293 213.293 0 0 0 572.267 36.547 A 169.455 169.455 0 0 0 569.801 42.3 Z" vector-effect="non-scaling-stroke"/></g></svg>